<svg width="20" height="20" viewBox="0 0 20 20" fill="none" xmlns="http://www.w3.org/2000/svg">
<path id="Combined Shape" fill-rule="evenodd" clip-rule="evenodd" d="M6.11746 8.40376L10.0019 4.52097L13.888 8.40692L16.147 6.14643L10.0019 0L3.8569 6.14485L6.11746 8.40376ZM0 10.0003L2.25973 7.74068L4.51946 10.0003L2.25973 12.26L0 10.0003ZM10.002 15.4806L6.11748 11.5962L3.85376 13.8536L3.85692 13.8567L10.002 20L16.147 13.8536L16.1486 13.852L13.888 11.5947L10.002 15.4806ZM15.4806 10.0009L17.7403 7.74123L20.0001 10.0009L17.7403 12.2606L15.4806 10.0009ZM10.002 7.70556L12.2941 9.99922H12.2957L12.2941 10.0008L10.002 12.2945L7.70981 10.004L7.70665 9.99922L7.70981 9.99606L8.11105 9.59482L8.30694 9.40053L10.002 7.70556Z" fill="#F3BA2F"/>
</svg>
