<svg width="33" height="32" viewBox="0 0 33 32" fill="none" xmlns="http://www.w3.org/2000/svg">
<g id="flat-color-icons:google">
<path id="Vector" d="M29.574 13.3886H28.5V13.3333H16.5V18.6666H24.0353C22.936 21.7713 19.982 24 16.5 24C12.082 24 8.5 20.418 8.5 16C8.5 11.582 12.082 7.99996 16.5 7.99996C18.5393 7.99996 20.3947 8.76929 21.8073 10.026L25.5787 6.25463C23.1973 4.03529 20.012 2.66663 16.5 2.66663C9.13667 2.66663 3.16667 8.63663 3.16667 16C3.16667 23.3633 9.13667 29.3333 16.5 29.3333C23.8633 29.3333 29.8333 23.3633 29.8333 16C29.8333 15.106 29.7413 14.2333 29.574 13.3886Z" fill="#FF9F30"/>
<path id="Vector_2" d="M4.704 9.79396L9.08466 13.0066C10.27 10.072 13.1407 7.99996 16.5 7.99996C18.5393 7.99996 20.3947 8.76929 21.8073 10.026L25.5787 6.25463C23.1973 4.03529 20.012 2.66663 16.5 2.66663C11.3787 2.66663 6.93733 5.55796 4.704 9.79396Z" fill="#FF3D00"/>
<path id="Vector_3" d="M16.5 29.3333C19.944 29.3333 23.0733 28.0153 25.4393 25.872L21.3127 22.38C19.929 23.4322 18.2383 24.0013 16.5 24C13.032 24 10.0873 21.7886 8.978 18.7026L4.63 22.0526C6.83667 26.3706 11.318 29.3333 16.5 29.3333Z" fill="#4CAF50"/>
<path id="Vector_4" d="M29.574 13.3886H28.5V13.3333H16.5V18.6666H24.0353C23.5095 20.1443 22.5622 21.4354 21.3107 22.3806L21.3127 22.3793L25.4393 25.8713C25.1473 26.1366 29.8333 22.6666 29.8333 16C29.8333 15.106 29.7413 14.2333 29.574 13.3886Z" fill="#1976D2"/>
</g>
</svg>
