<svg width="42" height="42" viewBox="0 0 42 42" fill="none" xmlns="http://www.w3.org/2000/svg">
<g id="Group 14">
<path id="Rectangle 28" opacity="0.2" d="M0 10C0 4.47715 4.47715 0 10 0H32C37.5228 0 42 4.47715 42 10V32C42 37.5228 37.5228 42 32 42H10C4.47715 42 0 37.5228 0 32V10Z" fill="#B1BCFF"/>
<g id="Group" opacity="0.8">
<path id="Shape" d="M20.8926 11L20.7639 11.4375V24.132L20.8926 24.2605L26.7853 20.7773L20.8926 11Z" fill="#B1BCFF"/>
<path id="Shape_2" d="M20.8926 11L15 20.7773L20.8926 24.2605V18.099V11Z" fill="#B1BCFF"/>
<path id="Shape_3" d="M20.8926 26.1777L20.8201 26.2661V30.7881L20.8926 31L26.7888 22.6963L20.8926 26.1777Z" fill="#B1BCFF"/>
<path id="Shape_4" d="M20.8926 31V26.1777L15 22.6963L20.8926 31Z" fill="#B1BCFF"/>
<path id="Shape_5" d="M20.8926 24.2604L26.7851 20.7774L20.8926 18.099V24.2604Z" fill="#B1BCFF"/>
<path id="Shape_6" d="M15 20.7774L20.8926 24.2605V18.099L15 20.7774Z" fill="#B1BCFF"/>
</g>
</g>
</svg>
