<svg width="33" height="32" viewBox="0 0 33 32" fill="none" xmlns="http://www.w3.org/2000/svg">
<g id="ri:apple-fill">
<path id="Vector" d="M15.9987 9.6293C14.8307 9.6293 13.0227 8.3013 11.1187 8.3493C8.60667 8.3813 6.30266 9.8053 5.00666 12.0613C2.39866 16.5893 4.33466 23.2773 6.87866 26.9573C8.12666 28.7493 9.59867 30.7653 11.5507 30.7013C13.4227 30.6213 14.1267 29.4853 16.3987 29.4853C18.6547 29.4853 19.2947 30.7013 21.2787 30.6533C23.2947 30.6213 24.5747 28.8293 25.8067 27.0213C27.2307 24.9413 27.8227 22.9253 27.8547 22.8133C27.8067 22.7973 23.9347 21.3093 23.8867 16.8293C23.8547 13.0853 26.9427 11.2933 27.0867 11.2133C25.3267 8.6373 22.6227 8.3493 21.6787 8.2853C19.2147 8.0933 17.1507 9.6293 15.9987 9.6293ZM20.1587 5.8533C21.1987 4.6053 21.8867 2.8613 21.6947 1.1333C20.2067 1.1973 18.4147 2.1253 17.3427 3.3733C16.3827 4.4773 15.5507 6.2533 15.7747 7.9493C17.4227 8.0773 19.1187 7.1013 20.1587 5.8533Z" fill="white"/>
</g>
</svg>
